<svg width="276.000000" height="276.000000" viewBox="0 0 276 276" fill="none" xmlns="http://www.w3.org/2000/svg" xmlns:xlink="http://www.w3.org/1999/xlink">
	<desc>
			Created with Pixso.
	</desc>
	<defs>
		<filter id="filter_1617_11615_dd" x="0.000000" y="0.000000" width="276.000000" height="276.000000" filterUnits="userSpaceOnUse" color-interpolation-filters="sRGB">
			<feFlood flood-opacity="0" result="BackgroundImageFix"/>
			<feBlend mode="normal" in="SourceGraphic" in2="BackgroundImageFix" result="shape"/>
			<feGaussianBlur stdDeviation="18" result="effect_layerBlur_1"/>
		</filter>
		<clipPath id="clip1617_11657">
			<rect id="Setup Wallet Icon " width="276.000000" height="276.000000" fill="white" fill-opacity="0"/>
		</clipPath>
		<linearGradient id="paint_linear_1617_11614_0" x1="55.083427" y1="22.999969" x2="230.622986" y2="59.541000" gradientUnits="userSpaceOnUse">
			<stop stop-color="#A259FF"/>
			<stop offset="1.000000" stop-color="#3B3B3B"/>
		</linearGradient>
		<linearGradient id="paint_linear_1617_11616_0" x1="81.200012" y1="53.999969" x2="243.657990" y2="85.331100" gradientUnits="userSpaceOnUse">
			<stop stop-color="#A259FF" stop-opacity="0.000000"/>
			<stop offset="1.000000" stop-color="#FF6250"/>
		</linearGradient>
		<linearGradient id="paint_linear_1617_11621_0" x1="225.688950" y1="219.134003" x2="240.418945" y2="230.703018" gradientUnits="userSpaceOnUse">
			<stop stop-color="#A259FF"/>
			<stop offset="1.000000" stop-color="#377DF7"/>
		</linearGradient>
		<linearGradient id="paint_linear_1617_11622_0" x1="58.396278" y1="235.525711" x2="57.904186" y2="250.181717" gradientUnits="userSpaceOnUse">
			<stop stop-color="#A259FF"/>
			<stop offset="1.000000" stop-color="#377DF7"/>
		</linearGradient>
		<linearGradient id="paint_linear_1617_11623_0" x1="231.126999" y1="67.257240" x2="245.767014" y2="66.417641" gradientUnits="userSpaceOnUse">
			<stop stop-color="#A259FF"/>
			<stop offset="1.000000" stop-color="#377DF7"/>
		</linearGradient>
		<linearGradient id="paint_linear_1617_11624_0" x1="175.550919" y1="134.068375" x2="211.651917" y2="140.310394" gradientUnits="userSpaceOnUse">
			<stop stop-color="#A259FF"/>
			<stop offset="1.000000" stop-color="#3B3B3B"/>
		</linearGradient>
		<linearGradient id="paint_linear_1617_11627_0" x1="151.797989" y1="224.895767" x2="112.798965" y2="148.310776" gradientUnits="userSpaceOnUse">
			<stop stop-color="#A259FF"/>
			<stop offset="1.000000" stop-color="#3B3B3B"/>
		</linearGradient>
		<linearGradient id="paint_linear_1617_11628_0" x1="88.016205" y1="93.899605" x2="181.937012" y2="85.787331" gradientUnits="userSpaceOnUse">
			<stop stop-color="#A259FF"/>
			<stop offset="1.000000" stop-color="#FF6250"/>
		</linearGradient>
		<linearGradient id="paint_linear_1617_11629_0" x1="160.270920" y1="116.515686" x2="170.128922" y2="114.762688" gradientUnits="userSpaceOnUse">
			<stop stop-color="#A259FF"/>
			<stop offset="1.000000" stop-color="#FF6250"/>
		</linearGradient>
		<linearGradient id="paint_linear_1617_11630_0" x1="166.108063" y1="114.253502" x2="175.965057" y2="112.500511" gradientUnits="userSpaceOnUse">
			<stop stop-color="#A259FF"/>
			<stop offset="1.000000" stop-color="#3B3B3B"/>
		</linearGradient>
		<linearGradient id="paint_linear_1617_11631_0" x1="87.109337" y1="104.517166" x2="104.739044" y2="102.801163" gradientUnits="userSpaceOnUse">
			<stop stop-color="#A259FF"/>
			<stop offset="1.000000" stop-color="#3B3B3B"/>
		</linearGradient>
		<linearGradient id="paint_linear_1617_11649_0" x1="105.098030" y1="138.429291" x2="111.758026" y2="147.786301" gradientUnits="userSpaceOnUse">
			<stop stop-color="#A259FF"/>
			<stop offset="1.000000" stop-color="#FF6250"/>
		</linearGradient>
		<linearGradient id="paint_linear_1617_11650_0" x1="104.880020" y1="143.945633" x2="112.188026" y2="152.369629" gradientUnits="userSpaceOnUse">
			<stop stop-color="#A259FF"/>
			<stop offset="1.000000" stop-color="#FF6250"/>
		</linearGradient>
		<linearGradient id="paint_linear_1617_11652_0" x1="92.917542" y1="153.998337" x2="183.150940" y2="177.706345" gradientUnits="userSpaceOnUse">
			<stop stop-color="#A259FF"/>
			<stop offset="1.000000" stop-color="#3B3B3B"/>
		</linearGradient>
		<linearGradient id="paint_linear_1617_11654_0" x1="160.295120" y1="177.716553" x2="3.981232" y2="102.696579" gradientUnits="userSpaceOnUse">
			<stop stop-color="#A259FF"/>
			<stop offset="0.666667" stop-color="#FFFFFF"/>
		</linearGradient>
	</defs>
	<rect id="Setup Wallet Icon " width="276.000000" height="276.000000" fill="#FFFFFF" fill-opacity="0"/>
	<g clip-path="url(#clip1617_11657)">
		<path id="Vector" d="M138 253C201.513 253 253 201.514 253 138C253 74.4863 201.513 23 138 23C74.4873 23 23 74.4863 23 138C23 201.514 74.4873 253 138 253Z" fill="url(#paint_linear_1617_11614_0)" fill-opacity="1.000000" fill-rule="nonzero"/>
		<g filter="url(#filter_1617_11615_dd)">
			<path id="Vector" d="M138 222C184.392 222 222 184.393 222 138C222 91.6074 184.392 54 138 54C91.6082 54 54 91.6074 54 138C54 184.393 91.6082 222 138 222Z" fill="url(#paint_linear_1617_11616_0)" fill-opacity="1.000000" fill-rule="nonzero"/>
		</g>
		<path id="Vector" d="M130.096 44.5801C132.02 44.5801 133.58 43.0195 133.58 41.0957C133.58 39.1719 132.02 37.6133 130.096 37.6133C128.172 37.6133 126.613 39.1719 126.613 41.0957C126.613 43.0195 128.172 44.5801 130.096 44.5801ZM130.096 47.1934C133.463 47.1934 136.193 44.4629 136.193 41.0957C136.193 37.7305 133.463 35 130.096 35C126.729 35 124 37.7305 124 41.0957C124 44.4629 126.729 47.1934 130.096 47.1934Z" fill="#FFFFFF" fill-opacity="1.000000" fill-rule="evenodd"/>
		<path id="Vector" d="M47.0964 204.58C49.0205 204.58 50.5801 203.02 50.5801 201.096C50.5801 199.172 49.0205 197.613 47.0964 197.613C45.1726 197.613 43.6128 199.172 43.6128 201.096C43.6128 203.02 45.1726 204.58 47.0964 204.58ZM47.0964 207.193C50.4634 207.193 53.1929 204.463 53.1929 201.096C53.1929 197.729 50.4634 195 47.0964 195C43.7295 195 41 197.729 41 201.096C41 204.463 43.7295 207.193 47.0964 207.193Z" fill="#FFFFFF" fill-opacity="1.000000" fill-rule="evenodd"/>
		<path id="Vector" d="M238.098 196.58C240.022 196.58 241.582 195.02 241.582 193.096C241.582 191.172 240.022 189.613 238.098 189.613C236.174 189.613 234.615 191.172 234.615 193.096C234.615 195.02 236.174 196.58 238.098 196.58ZM238.098 199.193C241.465 199.193 244.195 196.463 244.195 193.096C244.195 189.729 241.465 187 238.098 187C234.731 187 232.002 189.729 232.002 193.096C232.002 196.463 234.731 199.193 238.098 199.193Z" fill="#FFFFFF" fill-opacity="1.000000" fill-rule="evenodd"/>
		<path id="Vector" d="M73.3911 60.1895C73.6472 59.127 75.1572 59.127 75.4133 60.1895L76.2756 63.7617C76.3674 64.1406 76.6636 64.4375 77.0427 64.5293L80.6155 65.3906C81.677 65.6465 81.677 67.1562 80.6155 67.4141L77.0427 68.2754C76.6636 68.3672 76.3674 68.6641 76.2756 69.043L75.4133 72.6152C75.1572 73.6758 73.6472 73.6758 73.3911 72.6152L72.5286 69.043C72.437 68.6641 72.1409 68.3672 71.7615 68.2754L68.189 67.4141C67.1274 67.1562 67.1274 65.6465 68.189 65.3906L71.7615 64.5293C72.1409 64.4375 72.437 64.1406 72.5286 63.7617L73.3911 60.1895Z" fill="#FFFFFF" fill-opacity="1.000000" fill-rule="nonzero"/>
		<path id="Vector" d="M221.296 216.592C221.577 215.428 223.232 215.428 223.513 216.592L224.458 220.508C224.558 220.924 224.883 221.248 225.299 221.348L229.215 222.295C230.378 222.574 230.378 224.229 229.215 224.51L225.299 225.455C224.883 225.557 224.558 225.881 224.458 226.297L223.513 230.213C223.232 231.377 221.577 231.377 221.296 230.213L220.35 226.297C220.25 225.881 219.925 225.557 219.51 225.455L215.594 224.51C214.43 224.229 214.43 222.574 215.594 222.295L219.51 221.348C219.925 221.248 220.25 220.924 220.35 220.508L221.296 216.592Z" fill="url(#paint_linear_1617_11621_0)" fill-opacity="1.000000" fill-rule="nonzero"/>
		<path id="Vector" d="M57.031 231.238C58.355 231.025 59.4119 232.326 58.9336 233.578L55.7046 242.033C55.2261 243.287 53.571 243.551 52.7256 242.51L47.0176 235.486C46.1719 234.447 46.77 232.881 48.094 232.668L57.031 231.238Z" fill="url(#paint_linear_1617_11622_0)" fill-opacity="1.000000" fill-rule="nonzero"/>
		<path id="Vector" d="M226.98 69.0059C226.649 67.707 227.848 66.5371 229.139 66.8984L237.853 69.3477C239.143 69.7109 239.558 71.334 238.598 72.2715L232.121 78.5918C231.161 79.5293 229.548 79.0762 229.216 77.7773L226.98 69.0059Z" fill="url(#paint_linear_1617_11623_0)" fill-opacity="1.000000" fill-rule="nonzero"/>
		<path id="Vector" d="M197.967 129.711L179.074 133.385C173.698 134.428 170.188 139.633 171.233 145.008C172.278 150.383 177.482 153.893 182.857 152.85L201.751 149.176C207.126 148.131 210.636 142.928 209.591 137.553C208.547 132.178 203.342 128.666 197.967 129.711Z" fill="url(#paint_linear_1617_11624_0)" fill-opacity="1.000000" fill-rule="nonzero"/>
		<path id="Vector" d="M205.392 139.404C205.487 136.957 203.581 134.895 201.133 134.801C198.686 134.705 196.625 136.611 196.53 139.059C196.434 141.506 198.341 143.566 200.788 143.662C203.236 143.758 205.297 141.85 205.392 139.404Z" fill="#EBEBEB" fill-opacity="1.000000" fill-rule="nonzero"/>
		<path id="Vector" d="M201.421 141.615C202.737 141.359 203.596 140.084 203.341 138.77C203.085 137.453 201.811 136.594 200.495 136.85C199.18 137.105 198.32 138.379 198.576 139.695C198.832 141.01 200.106 141.871 201.421 141.615Z" fill="#DBDBDB" fill-opacity="1.000000" fill-rule="nonzero"/>
		<path id="Vector" d="M168.011 99.8496L71.5415 118.602C66.1201 119.654 62.5796 124.904 63.6333 130.326L76.6675 197.379C77.7212 202.801 82.9705 206.342 88.3918 205.287L184.861 186.537C190.283 185.482 193.823 180.234 192.77 174.812L179.735 107.758C178.682 102.336 173.433 98.7949 168.011 99.8496Z" fill="url(#paint_linear_1617_11627_0)" fill-opacity="1.000000" fill-rule="nonzero"/>
		<path id="Vector" d="M166.248 69.3594L185.954 120.295C187.057 123.141 185.639 126.344 182.797 127.445L102.014 158.697C99.1716 159.799 95.9697 158.381 94.8662 155.535L75.1609 104.598C74.1379 101.949 75.4519 98.9707 78.1028 97.9473L159.595 66.4238C162.246 65.4004 165.223 66.7148 166.246 69.3652L166.248 69.3594Z" fill="url(#paint_linear_1617_11628_0)" fill-opacity="1.000000" fill-rule="nonzero"/>
		<path id="Vector" d="M170.043 118.195C171.053 120.814 169.754 123.76 167.135 124.77C164.517 125.781 161.571 124.48 160.561 121.861C159.55 119.244 160.85 116.299 163.469 115.287C166.087 114.277 169.033 115.578 170.043 118.195Z" fill="url(#paint_linear_1617_11629_0)" fill-opacity="1.000000" fill-rule="nonzero"/>
		<path id="Vector" d="M175.879 115.934C176.89 118.553 175.59 121.498 172.972 122.508C170.353 123.518 167.408 122.219 166.397 119.6C165.387 116.982 166.687 114.037 169.305 113.027C171.924 112.016 174.869 113.316 175.879 115.934Z" fill="url(#paint_linear_1617_11630_0)" fill-opacity="1.000000" fill-rule="nonzero"/>
		<path id="Vector" d="M99.5083 99.7207L86.2729 104.84C85.2061 105.254 84.6755 106.453 85.0884 107.52L88.1655 115.475C88.5784 116.541 89.7781 117.072 90.8452 116.658L104.08 111.539C105.148 111.127 105.678 109.926 105.265 108.859L102.188 100.904C101.775 99.8379 100.575 99.3066 99.5083 99.7207Z" fill="url(#paint_linear_1617_11631_0)" fill-opacity="1.000000" fill-rule="nonzero"/>
		<path id="Vector" d="M159.749 83.8613L152.01 86.8535C150.219 87.541 148.209 86.6543 147.516 84.8652C146.829 83.0742 147.716 81.0625 149.506 80.3711L157.244 77.3789C159.034 76.6875 161.046 77.5781 161.738 79.3691C162.426 81.1602 161.538 83.1699 159.749 83.8613Z" fill="#FFFFFF" fill-opacity="1.000000" fill-rule="nonzero"/>
		<path id="Vector" d="M92.4507 128.416L91.9099 129.1C91.9099 129.1 91.8652 129.148 91.833 129.16C91.7686 129.186 91.6992 129.168 91.6538 129.135C91.5679 129.061 91.5564 128.949 91.6282 128.873L92.3616 127.922C92.4238 127.85 92.5496 127.834 92.6211 127.896C92.6599 127.93 92.6804 127.969 92.6936 128.016L94.4575 132.57C94.4929 132.662 94.4539 132.768 94.3525 132.807C94.2603 132.842 94.1521 132.793 94.1167 132.701L92.46 128.412L92.4507 128.416Z" fill="#F8F8F8" fill-opacity="1.000000" fill-rule="nonzero"/>
		<path id="Vector" d="M95.6157 131.967L97.1211 128.979C97.2986 128.613 97.3152 128.217 97.179 127.861C97.0623 127.559 96.8306 127.299 96.5159 127.139C96.1611 126.959 95.7563 126.949 95.4126 127.088C95.0996 127.209 94.8364 127.43 94.6724 127.748L94.5178 128.061C94.4753 128.154 94.3584 128.195 94.2766 128.146C94.1809 128.104 94.1414 127.988 94.1892 127.906L94.342 127.588C94.5493 127.191 94.8904 126.896 95.282 126.748C95.7146 126.58 96.2158 126.578 96.678 126.818C97.0881 127.02 97.3748 127.354 97.5215 127.736C97.6895 128.174 97.6843 128.684 97.4551 129.146L96.166 131.707L98.5146 130.805C98.605 130.766 98.7117 130.809 98.7505 130.91C98.7859 131.002 98.7375 131.111 98.6455 131.146L95.8813 132.217L95.8538 132.229C95.8032 132.248 95.7471 132.254 95.7053 132.227C95.6108 132.174 95.5703 132.066 95.6128 131.973L95.6157 131.967Z" fill="#F8F8F8" fill-opacity="1.000000" fill-rule="nonzero"/>
		<path id="Vector" d="M101.119 124.846L100.347 126.658C100.684 126.604 101.04 126.635 101.372 126.783C101.824 126.984 102.156 127.354 102.322 127.785C102.488 128.219 102.493 128.715 102.287 129.168C102.086 129.621 101.718 129.957 101.287 130.127C100.864 130.289 100.369 130.295 99.9146 130.09C99.8208 130.051 99.7737 129.943 99.8191 129.842C99.8555 129.742 99.9658 129.699 100.068 129.744C100.428 129.898 100.813 129.898 101.154 129.768C101.495 129.637 101.786 129.375 101.95 129.018C102.111 128.654 102.105 128.266 101.974 127.926C101.843 127.584 101.584 127.293 101.224 127.141C100.865 126.977 100.477 126.984 100.136 127.113C100.081 127.137 100.019 127.127 99.9666 127.1L99.9573 127.104C99.8572 127.062 99.813 126.947 99.8601 126.85L100.602 125.107L98.7 125.836C98.6003 125.881 98.4919 125.832 98.4548 125.736C98.416 125.635 98.4641 125.525 98.5608 125.488L100.882 124.598C100.981 124.555 101.09 124.604 101.127 124.699C101.138 124.727 101.139 124.76 101.134 124.787C101.134 124.812 101.127 124.836 101.118 124.855L101.119 124.846Z" fill="#F8F8F8" fill-opacity="1.000000" fill-rule="nonzero"/>
		<path id="Vector" d="M106.685 126.861L104 127.902L103.977 127.912C103.94 127.926 103.895 127.932 103.857 127.916C103.757 127.891 103.704 127.779 103.742 127.684L105.231 123.002L105.236 122.99C105.271 122.887 105.364 122.84 105.467 122.875C105.503 122.887 105.53 122.914 105.554 122.936C105.559 122.951 105.572 122.955 105.574 122.961L105.583 122.982L106.898 126.383L107.23 126.256C107.331 126.217 107.44 126.266 107.475 126.357C107.51 126.449 107.462 126.557 107.365 126.594L107.034 126.723L107.361 127.574C107.396 127.666 107.348 127.773 107.251 127.811C107.159 127.848 107.051 127.799 107.015 127.707L106.688 126.854L106.685 126.861ZM106.555 126.52L105.43 123.619L104.21 127.432L106.558 126.529L106.555 126.52Z" fill="#F8F8F8" fill-opacity="1.000000" fill-rule="nonzero"/>
		<path id="Vector" d="M113.104 124.988C113.004 124.947 112.96 124.832 113.009 124.738C113.052 124.643 113.165 124.594 113.262 124.641C113.622 124.795 114.008 124.795 114.348 124.664C114.689 124.533 114.971 124.277 115.133 123.914C115.295 123.549 115.29 123.166 115.159 122.826C115.027 122.479 114.767 122.188 114.41 122.029C114.055 121.875 113.665 121.877 113.324 122.008C112.978 122.141 112.692 122.398 112.53 122.762C112.487 122.857 112.372 122.902 112.281 122.857C112.253 122.852 112.23 122.834 112.219 122.816L112.215 122.809C112.215 122.809 112.201 122.799 112.197 122.789C112.183 122.779 112.174 122.756 112.167 122.738C112.163 122.729 112.162 122.713 112.157 122.699L111.623 120.605C111.602 120.551 111.612 120.494 111.643 120.451C111.66 120.412 111.696 120.383 111.742 120.365L114.054 119.477C114.153 119.434 114.261 119.48 114.299 119.578C114.339 119.684 114.289 119.789 114.193 119.826L112.028 120.656L112.422 122.207C112.617 121.957 112.877 121.768 113.177 121.652C113.61 121.486 114.092 121.475 114.552 121.684C115.014 121.883 115.333 122.246 115.503 122.688C115.665 123.111 115.683 123.613 115.472 124.068C115.269 124.516 114.897 124.854 114.469 125.018C114.036 125.184 113.541 125.189 113.089 124.988L113.104 124.988Z" fill="#F8F8F8" fill-opacity="1.000000" fill-rule="nonzero"/>
		<path id="Vector" d="M116.518 119.773C116.628 119.039 117.027 118.373 117.839 118.023C117.928 117.98 118.036 118.029 118.081 118.117C118.119 118.219 118.071 118.326 117.981 118.367C117.296 118.662 116.997 119.188 116.881 119.824C116.822 120.18 116.846 120.572 116.913 120.953C117.082 120.498 117.434 120.107 117.923 119.922C118.839 119.57 119.852 120.02 120.199 120.924C120.547 121.83 120.1 122.842 119.19 123.197C118.302 123.537 117.31 123.115 116.94 122.248C116.886 122.146 116.845 122.041 116.801 121.926C116.553 121.266 116.409 120.492 116.523 119.771L116.518 119.773ZM117.275 122.088C117.289 122.125 117.309 122.148 117.324 122.174C117.333 122.197 117.338 122.211 117.334 122.229C117.664 122.826 118.399 123.104 119.049 122.854C119.772 122.578 120.127 121.77 119.855 121.061C119.583 120.352 118.775 119.996 118.052 120.273C117.343 120.545 116.987 121.352 117.26 122.062L117.27 122.09L117.275 122.088Z" fill="#F8F8F8" fill-opacity="1.000000" fill-rule="nonzero"/>
		<path id="Vector" d="M122.544 121.625L122.694 116.564L120.294 117.486C120.204 117.525 120.097 117.482 120.062 117.389C120.027 117.297 120.075 117.188 120.167 117.154L122.792 116.145C122.823 116.117 122.856 116.105 122.898 116.105C122.948 116.113 123.001 116.139 123.031 116.176C123.049 116.195 123.059 116.207 123.066 116.225C123.08 116.262 123.081 116.293 123.073 116.328L122.918 121.635C122.915 121.709 122.866 121.777 122.802 121.801C122.774 121.811 122.76 121.816 122.727 121.812C122.626 121.811 122.544 121.721 122.539 121.627L122.544 121.625Z" fill="#F8F8F8" fill-opacity="1.000000" fill-rule="nonzero"/>
		<path id="Vector" d="M125.615 115.008C126.182 114.789 126.828 115.07 127.046 115.637C127.178 115.982 127.123 116.346 126.944 116.637C127.625 116.65 128.262 117.07 128.519 117.738C128.862 118.633 128.424 119.625 127.532 119.973C126.643 120.314 125.646 119.877 125.299 118.986C125.042 118.318 125.23 117.58 125.716 117.113C125.395 117.02 125.114 116.785 124.982 116.439C124.764 115.873 125.037 115.234 125.613 115.014L125.615 115.008ZM127.404 119.625C128.113 119.354 128.451 118.568 128.183 117.867C127.916 117.174 127.135 116.816 126.425 117.09C125.725 117.357 125.38 118.15 125.647 118.848C125.917 119.551 126.704 119.895 127.404 119.625ZM126.285 116.736C126.663 116.58 126.856 116.148 126.71 115.766C126.563 115.383 126.133 115.199 125.751 115.346C125.369 115.492 125.183 115.918 125.33 116.301C125.477 116.682 125.905 116.877 126.289 116.734L126.285 116.736Z" fill="#F8F8F8" fill-opacity="1.000000" fill-rule="nonzero"/>
		<path id="Vector" d="M134.43 111.6C135.282 111.271 136.213 111.635 136.618 112.412C136.632 112.424 136.636 112.434 136.646 112.445C136.706 112.574 136.766 112.717 136.822 112.863C137.075 113.521 137.218 114.307 137.113 115.023C136.998 115.744 136.595 116.428 135.792 116.771L135.783 116.775C135.682 116.814 135.577 116.775 135.541 116.684C135.503 116.582 135.543 116.482 135.641 116.434C136.315 116.139 136.635 115.609 136.741 114.977C136.796 114.611 136.785 114.225 136.709 113.848C136.54 114.303 136.182 114.678 135.685 114.869C134.782 115.215 133.77 114.779 133.413 113.865C133.067 112.963 133.518 111.949 134.421 111.604L134.43 111.6ZM136.357 112.725C136.085 112.016 135.285 111.666 134.562 111.945C133.853 112.217 133.496 113.02 133.766 113.725C134.044 114.447 134.846 114.789 135.555 114.518C136.278 114.24 136.635 113.447 136.352 112.727L136.357 112.725Z" fill="#F8F8F8" fill-opacity="1.000000" fill-rule="nonzero"/>
		<path id="Vector" d="M138.296 112.957C138.04 112.291 137.972 111.619 138.098 111.037C138.232 110.479 138.548 110.008 139.05 109.816C139.552 109.623 140.106 109.758 140.578 110.08C141.054 110.426 141.472 110.963 141.733 111.629C141.989 112.295 142.043 112.973 141.918 113.543C141.786 114.107 141.471 114.582 140.969 114.775C140.467 114.967 139.913 114.83 139.438 114.5C138.961 114.166 138.551 113.621 138.294 112.953L138.296 112.957ZM138.641 112.826C138.875 113.434 139.251 113.918 139.656 114.201C140.058 114.48 140.482 114.566 140.837 114.428C141.191 114.293 141.438 113.945 141.556 113.467C141.662 112.986 141.622 112.373 141.389 111.766C141.156 111.158 140.77 110.676 140.37 110.391C139.958 110.102 139.544 110.027 139.189 110.164C138.834 110.299 138.573 110.637 138.47 111.127C138.364 111.605 138.413 112.215 138.648 112.828L138.641 112.826Z" fill="#F8F8F8" fill-opacity="1.000000" fill-rule="nonzero"/>
		<path id="Vector" d="M143.259 108.764L142.719 109.447C142.719 109.447 142.674 109.494 142.642 109.508C142.577 109.533 142.508 109.518 142.462 109.482C142.376 109.408 142.365 109.297 142.437 109.223L143.17 108.27C143.233 108.197 143.358 108.182 143.43 108.244C143.469 108.275 143.489 108.316 143.502 108.363L145.266 112.918C145.301 113.01 145.262 113.113 145.161 113.152C145.069 113.189 144.961 113.141 144.925 113.049L143.269 108.76L143.259 108.764Z" fill="#F8F8F8" fill-opacity="1.000000" fill-rule="nonzero"/>
		<path id="Vector" d="M146.423 112.311L147.928 109.322C148.106 108.959 148.122 108.561 147.986 108.207C147.869 107.902 147.638 107.643 147.323 107.484C146.968 107.303 146.563 107.295 146.22 107.432C145.907 107.553 145.645 107.779 145.479 108.092L145.325 108.404C145.282 108.5 145.165 108.539 145.084 108.49C144.988 108.449 144.948 108.332 144.996 108.25L145.149 107.934C145.356 107.537 145.697 107.24 146.087 107.086C146.52 106.92 147.021 106.918 147.483 107.158C147.893 107.359 148.18 107.693 148.327 108.076C148.495 108.514 148.489 109.023 148.26 109.486L146.971 112.047L149.32 111.145C149.41 111.105 149.519 111.152 149.556 111.25C149.591 111.342 149.543 111.449 149.451 111.486L146.687 112.557L146.659 112.568C146.608 112.588 146.552 112.594 146.511 112.566C146.416 112.514 146.375 112.406 146.418 112.312L146.423 112.311Z" fill="#F8F8F8" fill-opacity="1.000000" fill-rule="nonzero"/>
		<path id="Vector" d="M156.173 103.547L155.4 105.359C155.738 105.305 156.094 105.336 156.425 105.484C156.878 105.686 157.21 106.055 157.376 106.486C157.542 106.92 157.547 107.416 157.341 107.869C157.139 108.322 156.772 108.658 156.345 108.826C155.922 108.99 155.422 108.996 154.968 108.791C154.874 108.754 154.827 108.645 154.873 108.543C154.911 108.447 155.019 108.4 155.121 108.445C155.481 108.6 155.867 108.6 156.208 108.469C156.548 108.338 156.84 108.076 157.003 107.719C157.165 107.355 157.158 106.967 157.028 106.627C156.897 106.285 156.637 105.994 156.277 105.842C155.919 105.678 155.53 105.686 155.189 105.816C155.134 105.838 155.073 105.828 155.02 105.801L155.011 105.805C154.911 105.764 154.866 105.648 154.914 105.551L155.655 103.809L153.753 104.539C153.654 104.582 153.546 104.533 153.508 104.438C153.47 104.336 153.518 104.227 153.614 104.189L155.935 103.299C156.035 103.256 156.143 103.305 156.18 103.4C156.191 103.43 156.192 103.461 156.187 103.488C156.187 103.516 156.18 103.537 156.172 103.557L156.173 103.547Z" fill="#F8F8F8" fill-opacity="1.000000" fill-rule="nonzero"/>
		<path id="Vector" d="M161.739 105.564L159.05 106.598L159.042 106.605L159.029 106.609C158.992 106.625 158.949 106.637 158.909 106.613C158.809 106.59 158.756 106.477 158.794 106.383L160.283 101.701L160.288 101.688C160.323 101.586 160.416 101.539 160.519 101.574C160.555 101.586 160.582 101.613 160.606 101.635C160.611 101.648 160.62 101.656 160.626 101.658L160.635 101.682L161.95 105.082L162.282 104.955C162.383 104.916 162.492 104.965 162.527 105.057C162.562 105.148 162.514 105.258 162.417 105.295L162.086 105.422L162.413 106.273C162.448 106.365 162.4 106.473 162.303 106.51C162.211 106.547 162.103 106.498 162.067 106.404L161.74 105.553L161.739 105.564ZM161.608 105.225L160.484 102.32L159.263 106.135L161.612 105.232L161.608 105.225Z" fill="#F8F8F8" fill-opacity="1.000000" fill-rule="nonzero"/>
		<path id="Vector" d="M163.911 105.332C163.811 105.291 163.767 105.176 163.816 105.082C163.858 104.988 163.974 104.943 164.069 104.986C164.429 105.137 164.814 105.137 165.155 105.008C165.496 104.877 165.778 104.621 165.94 104.256C166.102 103.893 166.097 103.51 165.966 103.168C165.833 102.824 165.574 102.533 165.217 102.373C164.86 102.215 164.471 102.221 164.131 102.352C163.785 102.484 163.499 102.742 163.337 103.105C163.294 103.201 163.181 103.25 163.088 103.201C163.06 103.195 163.037 103.178 163.026 103.162L163.022 103.152C163.022 103.152 163.008 103.143 163.004 103.133C162.989 103.123 162.981 103.1 162.974 103.082C162.97 103.072 162.969 103.057 162.964 103.043L162.43 100.949C162.409 100.893 162.419 100.838 162.45 100.793C162.467 100.756 162.503 100.725 162.549 100.709L164.86 99.8203C164.96 99.7773 165.068 99.8262 165.105 99.9219C165.146 100.029 165.096 100.131 164.999 100.168L162.835 101L163.229 102.549C163.426 102.305 163.684 102.111 163.984 101.996C164.416 101.83 164.898 101.82 165.359 102.029C165.821 102.227 166.14 102.59 166.31 103.031C166.472 103.455 166.49 103.955 166.279 104.412C166.076 104.859 165.704 105.197 165.276 105.363C164.843 105.529 164.348 105.533 163.896 105.332L163.911 105.332Z" fill="#F8F8F8" fill-opacity="1.000000" fill-rule="nonzero"/>
		<path id="Vector" d="M167.325 100.117C167.435 99.3828 167.832 98.7129 168.646 98.3691C168.735 98.3242 168.843 98.373 168.887 98.4609C168.926 98.5625 168.878 98.6699 168.788 98.7109C168.105 99.0098 167.803 99.5312 167.688 100.168C167.629 100.523 167.653 100.916 167.72 101.297C167.889 100.842 168.241 100.453 168.729 100.266C169.646 99.9141 170.659 100.365 171.006 101.266C171.354 102.174 170.907 103.186 169.997 103.541C169.108 103.881 168.117 103.459 167.747 102.592C167.692 102.492 167.652 102.385 167.608 102.27C167.359 101.609 167.215 100.836 167.33 100.115L167.325 100.117ZM168.082 102.432C168.096 102.469 168.116 102.492 168.131 102.518C168.14 102.541 168.145 102.555 168.141 102.572C168.471 103.17 169.206 103.447 169.855 103.199C170.578 102.92 170.934 102.113 170.662 101.404C170.39 100.695 169.582 100.34 168.859 100.617C168.15 100.889 167.794 101.697 168.066 102.406L168.077 102.434L168.082 102.432Z" fill="#F8F8F8" fill-opacity="1.000000" fill-rule="nonzero"/>
		<path id="Vector" d="M141.352 124.404L98.0947 141.139L98.917 143.264L142.174 126.529L141.352 124.404Z" fill="url(#paint_linear_1617_11649_0)" fill-opacity="1.000000" fill-rule="nonzero"/>
		<path id="Vector" d="M130.547 134.016L99.9221 145.863L100.744 147.99L131.369 136.143L130.547 134.016Z" fill="url(#paint_linear_1617_11650_0)" fill-opacity="1.000000" fill-rule="nonzero"/>
		<path id="Vector" d="M142.226 83.1875L122.78 90.7109C122.193 90.9395 121.901 91.5977 122.128 92.1855C122.355 92.7715 123.015 93.0645 123.602 92.8359L143.048 85.3145C143.635 85.0859 143.926 84.4277 143.699 83.8398C143.472 83.2539 142.812 82.9609 142.226 83.1875Z" fill="#3B3B3B" fill-opacity="1.000000" fill-rule="nonzero"/>
		<path id="Vector" d="M177.861 137.486L76.5081 157.188L84.3953 197.764L185.749 178.062L177.861 137.486Z" fill="url(#paint_linear_1617_11652_0)" fill-opacity="1.000000" fill-rule="nonzero"/>
		<g opacity="0.200000">
			<path id="Vector" d="M177.861 137.486L76.5081 157.188L84.3953 197.764L185.749 178.062L177.861 137.486Z" fill="#000000" fill-opacity="1.000000" fill-rule="nonzero"/>
		</g>
		<path id="Vector" d="M187.223 202.348L87.3667 207.4C82.3948 207.652 77.9949 204.209 77.0449 199.322L62.6707 125.371C62.3315 123.627 64.1245 122.24 65.7283 123.006C67.5896 123.896 69.6577 124.273 71.7192 124.098L161.423 116.426C166.516 115.99 171.117 119.463 172.092 124.48L187.227 202.342C187.227 202.344 187.225 202.346 187.223 202.348Z" fill="url(#paint_linear_1617_11654_0)" fill-opacity="1.000000" fill-rule="nonzero"/>
		<path id="Vector" d="M166.013 165.928C168.337 165.477 169.804 162.965 169.289 160.316C168.775 157.67 166.474 155.891 164.15 156.342C161.826 156.793 160.359 159.305 160.874 161.953C161.389 164.6 163.69 166.381 166.013 165.928Z" fill="#EBEBEB" fill-opacity="1.000000" fill-rule="nonzero"/>
		<path id="Vector" d="M167.038 160.756C167.277 161.986 166.595 163.154 165.515 163.363C164.435 163.574 163.365 162.746 163.126 161.516C162.887 160.287 163.569 159.119 164.649 158.91C165.729 158.699 166.799 159.527 167.038 160.756Z" fill="#DBDBDB" fill-opacity="1.000000" fill-rule="nonzero"/>
	</g>
</svg>
