<svg width="20.000000" height="20.000000" viewBox="0 0 20 20" fill="none" xmlns="http://www.w3.org/2000/svg" xmlns:xlink="http://www.w3.org/1999/xlink">
	<desc>
			Created with Pixso.
	</desc>
	<defs/>
	<path id="Vector (Stroke)" d="M2.83887 6.74609C4.3291 5.25586 6.66699 3.75 10 3.75C13.333 3.75 15.6709 5.25586 17.1611 6.74609C17.9043 7.48828 18.4395 8.23047 18.791 8.78711C18.9668 9.06641 19.0967 9.30078 19.1836 9.46875C19.2275 9.55078 19.2607 9.61914 19.2832 9.66602C19.2949 9.68945 19.3037 9.70898 19.3096 9.7207L19.3174 9.73828L19.3193 9.74219L19.3203 9.74414L19.3213 9.74609C19.3213 9.74609 19.3213 9.74609 18.75 10C19.3213 10.2539 19.3213 10.2539 19.3213 10.2539L19.3203 10.2559L19.3193 10.2578L19.3174 10.2617L19.3096 10.2793C19.3037 10.291 19.2949 10.3105 19.2832 10.334C19.2607 10.3809 19.2275 10.4492 19.1836 10.5312C19.0967 10.6992 18.9668 10.9336 18.791 11.2129C18.4395 11.7695 17.9043 12.5117 17.1611 13.2539C15.6709 14.7441 13.333 16.25 10 16.25C6.66699 16.25 4.3291 14.7441 2.83887 13.2539C2.0957 12.5117 1.56055 11.7695 1.20898 11.2129C1.0332 10.9336 0.90332 10.6992 0.816406 10.5312C0.772461 10.4492 0.739258 10.3809 0.716797 10.334C0.705078 10.3105 0.696289 10.291 0.69043 10.2793L0.682617 10.2617L0.680664 10.2578L0.679688 10.2559L0.678711 10.2539C0.678711 10.2539 0.678711 10.2539 1.25 10C0.678711 9.74609 0.678711 9.74609 0.678711 9.74609L0.679688 9.74414L0.680664 9.74219L0.682617 9.73828L0.69043 9.7207C0.696289 9.70898 0.705078 9.68945 0.716797 9.66602C0.739258 9.61914 0.772461 9.55078 0.816406 9.46875C0.90332 9.30078 1.0332 9.06641 1.20898 8.78711C1.56055 8.23047 2.0957 7.48828 2.83887 6.74609ZM1.25 10L0.678711 9.74609C0.607422 9.9082 0.607422 10.0918 0.678711 10.2539L1.25 10ZM1.94922 10C2.02246 10.1387 2.12793 10.3242 2.26758 10.5449C2.58008 11.043 3.06055 11.707 3.72363 12.3711C5.0459 13.6934 7.08301 15 10 15C12.917 15 14.9541 13.6934 16.2764 12.3711C16.9395 11.707 17.4199 11.043 17.7324 10.5449C17.8721 10.3242 17.9775 10.1387 18.0508 10C17.9775 9.86133 17.8721 9.67578 17.7324 9.45508C17.4199 8.95703 16.9395 8.29297 16.2764 7.62891C14.9541 6.30664 12.917 5 10 5C7.08301 5 5.0459 6.30664 3.72363 7.62891C3.06055 8.29297 2.58008 8.95703 2.26758 9.45508C2.12793 9.67578 2.02246 9.86133 1.94922 10ZM18.75 10L19.3213 10.2539C19.3926 10.0918 19.3926 9.9082 19.3213 9.74609L18.75 10Z" fill="#A259FF" fill-opacity="1.000000" fill-rule="evenodd"/>
	<path id="Vector (Stroke)" d="M10 7.5C8.61914 7.5 7.5 8.61914 7.5 10C7.5 11.3809 8.61914 12.5 10 12.5C11.3809 12.5 12.5 11.3809 12.5 10C12.5 8.61914 11.3809 7.5 10 7.5ZM6.25 10C6.25 7.92969 7.92871 6.25 10 6.25C12.0713 6.25 13.75 7.92969 13.75 10C13.75 12.0703 12.0713 13.75 10 13.75C7.92871 13.75 6.25 12.0703 6.25 10Z" fill="#A259FF" fill-opacity="1.000000" fill-rule="evenodd"/>
</svg>
