<svg width="100.000000" height="100.000000" viewBox="0 0 100 100" fill="none" xmlns="http://www.w3.org/2000/svg" xmlns:xlink="http://www.w3.org/1999/xlink">
	<desc>
			Created with Pixso.
	</desc>
	<defs/>
	<path id="Vector" d="M35.9375 84.375C39.9548 84.375 43.8821 83.1836 47.2224 80.9521C50.563 78.7197 53.1665 75.5479 54.7039 71.8359C56.2412 68.124 56.6436 64.04 55.8596 60.0996C55.0759 56.1592 53.1414 52.54 50.3005 49.6992C47.46 46.8584 43.8406 44.9238 39.9004 44.1406C35.96 43.3564 31.876 43.7588 28.1643 45.2959C24.4526 46.834 21.2803 49.4375 19.0483 52.7773C16.8164 56.1182 15.625 60.0449 15.625 64.0625C15.625 78.125 7.8125 84.375 7.8125 84.375L35.9375 84.375Z" stroke="#FFFFFF" stroke-opacity="1.000000" stroke-width="3.000000" stroke-linejoin="round"/>
	<path id="Vector" d="M43.9058 45.3906C51.4058 35.2734 70.4683 12.1094 87.8901 12.1094C87.8901 29.5312 64.7261 48.5938 54.6089 56.0938" stroke="#FFFFFF" stroke-opacity="1.000000" stroke-width="3.000000" stroke-linejoin="round" stroke-linecap="round"/>
	<path id="Vector" d="M51.9531 35.3916C57.2461 38.3789 61.6223 42.7549 64.6094 48.0479" stroke="#FFFFFF" stroke-opacity="1.000000" stroke-width="3.000000" stroke-linejoin="round" stroke-linecap="round"/>
</svg>
