<svg width="100.000000" height="100.000000" viewBox="0 0 100 100" fill="none" xmlns="http://www.w3.org/2000/svg" xmlns:xlink="http://www.w3.org/1999/xlink">
	<desc>
			Created with Pixso.
	</desc>
	<defs/>
	<path id="Vector" d="M23.7886 14.0225C23.8545 13.6182 24.0005 13.2314 24.2178 12.8848C24.4351 12.5371 24.7192 12.2363 25.0537 12C25.3882 11.7637 25.7661 11.5967 26.166 11.5078C26.5659 11.4189 26.9795 11.4111 27.3823 11.4834L48.9448 15.2725C49.7598 15.4248 50.4819 15.8906 50.957 16.5703C51.4316 17.25 51.6211 18.0879 51.4839 18.9053L41.9917 72.7725C41.3418 76.3994 39.2979 79.6289 36.2974 81.7676C33.2969 83.9062 29.5781 84.7861 25.937 84.2178C18.1636 82.9678 12.9683 75.3506 14.3354 67.5771L23.7886 14.0225Z" stroke="#FFFFFF" stroke-opacity="1.000000" stroke-width="3.000000" stroke-linejoin="round"/>
	<path id="Vector" d="M46.21 48.75L74.6865 38.3984C75.0737 38.2559 75.4854 38.1904 75.8975 38.208C76.3101 38.2246 76.7148 38.3232 77.0889 38.4971C77.4629 38.6719 77.7988 38.9189 78.0771 39.2236C78.3555 39.5283 78.5703 39.8848 78.71 40.2734L86.21 60.8203C86.4868 61.5977 86.4448 62.4521 86.0933 63.1992C85.7422 63.9453 85.1099 64.5225 84.335 64.8047L32.9287 83.5156" stroke="#FFFFFF" stroke-opacity="1.000000" stroke-width="3.000000" stroke-linejoin="round" stroke-linecap="round"/>
	<path id="Vector" d="M85.9375 63.4766L85.9375 81.25C85.9375 82.0791 85.6084 82.874 85.022 83.46C84.436 84.0459 83.6411 84.375 82.8125 84.375L28.125 84.375" stroke="#FFFFFF" stroke-opacity="1.000000" stroke-width="3.000000" stroke-linejoin="round" stroke-linecap="round"/>
	<path id="Vector" d="M32.8125 70.3125C32.8125 72.9014 30.7139 75 28.125 75C25.5361 75 23.4375 72.9014 23.4375 70.3125C23.4375 67.7236 25.5361 65.625 28.125 65.625C30.7139 65.625 32.8125 67.7236 32.8125 70.3125Z" fill="#FFFFFF" fill-opacity="1.000000" fill-rule="evenodd"/>
</svg>
