<svg width="100.000000" height="100.000000" viewBox="0 0 100 100" fill="none" xmlns="http://www.w3.org/2000/svg" xmlns:xlink="http://www.w3.org/1999/xlink">
	<desc>
			Created with Pixso.
	</desc>
	<defs/>
	<path id="Vector" d="M50 87.5C29.2896 87.5 12.5 70.7109 12.5 50C12.5 29.2891 29.2896 12.5 50 12.5C70.7104 12.5 87.5 29.2891 87.5 50C87.5 70.7109 70.7104 87.5 50 87.5Z" stroke="#FFFFFF" stroke-opacity="1.000000" stroke-width="3.000000" stroke-linejoin="round"/>
	<path id="Vector" d="M23.4375 23.5166C30.4492 30.5469 34.3828 40.0723 34.375 50.001C34.3828 59.9297 30.4492 69.4551 23.4375 76.4854" stroke="#FFFFFF" stroke-opacity="1.000000" stroke-width="3.000000" stroke-linejoin="round" stroke-linecap="round"/>
	<path id="Vector" d="M76.5635 23.5166C69.5596 30.5518 65.6279 40.0742 65.6279 50.001C65.6279 59.9277 69.5596 69.4502 76.5635 76.4854" stroke="#FFFFFF" stroke-opacity="1.000000" stroke-width="3.000000" stroke-linejoin="round" stroke-linecap="round"/>
	<path id="Vector" d="M12.5 50L87.5 50" stroke="#FFFFFF" stroke-opacity="1.000000" stroke-width="3.000000" stroke-linejoin="round" stroke-linecap="round"/>
	<path id="Vector" d="M50 12.5L50 87.5" stroke="#FFFFFF" stroke-opacity="1.000000" stroke-width="3.000000" stroke-linejoin="round" stroke-linecap="round"/>
</svg>
