<svg width="100.000000" height="100.000000" viewBox="0 0 100 100" fill="none" xmlns="http://www.w3.org/2000/svg" xmlns:xlink="http://www.w3.org/1999/xlink">
	<desc>
			Created with Pixso.
	</desc>
	<defs/>
	<path id="Vector" d="M18.75 81.25C17.0923 81.25 15.5027 80.5918 14.3306 79.4189C13.1584 78.2471 12.5 76.6572 12.5 75L12.5 31.25C12.5 29.5928 13.1584 28.0029 14.3306 26.8311C15.5027 25.6582 17.0923 25 18.75 25L31.25 25L37.5 15.625L62.5 15.625L68.75 25L81.25 25C82.9077 25 84.4973 25.6582 85.6694 26.8311C86.8416 28.0029 87.5 29.5928 87.5 31.25L87.5 75C87.5 76.6572 86.8416 78.2471 85.6694 79.4189C84.4973 80.5918 82.9077 81.25 81.25 81.25L18.75 81.25Z" stroke="#FFFFFF" stroke-opacity="1.000000" stroke-width="3.000000" stroke-linejoin="round"/>
	<path id="Vector" d="M50 65.625C42.2334 65.625 35.9375 59.3291 35.9375 51.5625C35.9375 43.7959 42.2334 37.5 50 37.5C57.7666 37.5 64.0625 43.7959 64.0625 51.5625C64.0625 59.3291 57.7666 65.625 50 65.625Z" stroke="#FFFFFF" stroke-opacity="1.000000" stroke-width="3.000000" stroke-linejoin="round"/>
</svg>
