<svg width="100.000000" height="100.000000" viewBox="0 0 100 100" fill="none" xmlns="http://www.w3.org/2000/svg" xmlns:xlink="http://www.w3.org/1999/xlink">
	<desc>
			Created with Pixso.
	</desc>
	<defs/>
	<path id="Vector" d="M59.375 23.4375C62.6904 23.4375 65.8696 24.7549 68.2139 27.0986C70.5581 29.4424 71.875 32.6221 71.875 35.9375L71.875 73.4375C71.875 74.2666 71.5459 75.0615 70.9595 75.6475C70.3735 76.2334 69.5786 76.5625 68.75 76.5625L18.75 76.5625C15.4348 76.5625 12.2554 75.2451 9.91113 72.9014C7.56689 70.5566 6.25 67.3779 6.25 64.0625L6.25 26.5625C6.25 25.7334 6.57935 24.9385 7.16528 24.3525C7.75122 23.7666 8.54614 23.4375 9.375 23.4375L59.375 23.4375Z" stroke="#FFFFFF" stroke-opacity="1.000000" stroke-width="3.000000" stroke-linejoin="round"/>
	<path id="Vector" d="M71.875 43.75L93.75 31.25L93.75 68.75L71.875 56.25" stroke="#FFFFFF" stroke-opacity="1.000000" stroke-width="3.000000" stroke-linejoin="round" stroke-linecap="round"/>
</svg>
