<svg width="32.000000" height="32.000000" viewBox="0 0 32 32" fill="none" xmlns="http://www.w3.org/2000/svg" xmlns:xlink="http://www.w3.org/1999/xlink">
	<desc>
			Created with Pixso.
	</desc>
	<defs/>
	<path id="Vector (Stroke)" d="M3 7C3 6.44727 3.44775 6 4 6L28 6C28.5522 6 29 6.44727 29 7L29 24C29 24.5303 28.7893 25.0391 28.4143 25.4141C28.0391 25.7891 27.5305 26 27 26L5 26C4.46948 26 3.96094 25.7891 3.58569 25.4141C3.21069 25.0391 3 24.5303 3 24L3 7ZM5 8L5 24L27 24L27 8L5 8Z" fill="#FFFFFF" fill-opacity="1.000000" fill-rule="evenodd"/>
	<path id="Vector (Stroke)" d="M3.26294 6.32422C3.63599 5.91699 4.26855 5.88965 4.67578 6.2627L16 16.6436L27.3242 6.2627C27.7314 5.88965 28.364 5.91699 28.7371 6.32422C29.1104 6.73145 29.0828 7.36426 28.6758 7.7373L16.6758 18.7373C16.2935 19.0879 15.7065 19.0879 15.3242 18.7373L3.32422 7.7373C2.91724 7.36426 2.88965 6.73145 3.26294 6.32422Z" fill="#FFFFFF" fill-opacity="1.000000" fill-rule="evenodd"/>
</svg>
