<svg width="243.414062" height="32.000000" viewBox="0 0 243.414 32" fill="none" xmlns="http://www.w3.org/2000/svg" xmlns:xlink="http://www.w3.org/1999/xlink">
	<desc>
			Created with Pixso.
	</desc>
	<defs/>
	<path id="Vector (Stroke)" d="M6 12.4502C6.55273 12.4502 7 12.8975 7 13.4502L7 26L25 26L25 13.4502C25 12.8975 25.4473 12.4502 26 12.4502C26.5527 12.4502 27 12.8975 27 13.4502L27 26C27 26.5303 26.7891 27.0391 26.4141 27.4141C26.0391 27.7891 25.5303 28 25 28L7 28C6.46973 28 5.96094 27.7891 5.58594 27.4141C5.21094 27.0391 5 26.5303 5 26L5 13.4502C5 12.8975 5.44727 12.4502 6 12.4502Z" fill="#A259FF" fill-opacity="1.000000" fill-rule="evenodd"/>
	<path id="Vector (Stroke)" d="M3 5C3 4.44727 3.44727 4 4 4L28 4C28.5527 4 29 4.44727 29 5C29 5.55273 28.5527 6 28 6L4 6C3.44727 6 3 5.55273 3 5Z" fill="#A259FF" fill-opacity="1.000000" fill-rule="evenodd"/>
	<path id="Vector (Stroke)" d="M4 7C4.55273 7 5 7.44727 5 8L5 10C5 10.7959 5.31641 11.5586 5.87891 12.1211C6.44141 12.6836 7.2041 13 8 13C8.7959 13 9.55859 12.6836 10.1211 12.1211C10.6836 11.5586 11 10.7959 11 10L11 8C11 7.44727 11.4473 7 12 7C12.5527 7 13 7.44727 13 8L13 10C13 11.3262 12.4736 12.5977 11.5352 13.5352C10.5977 14.4736 9.32617 15 8 15C6.67383 15 5.40234 14.4736 4.46484 13.5352C3.52637 12.5977 3 11.3262 3 10L3 8C3 7.44727 3.44727 7 4 7Z" fill="#A259FF" fill-opacity="1.000000" fill-rule="evenodd"/>
	<path id="Vector (Stroke)" d="M12 7C12.5527 7 13 7.44727 13 8L13 10C13 10.7959 13.3164 11.5586 13.8789 12.1211C14.4414 12.6836 15.2041 13 16 13C16.7959 13 17.5586 12.6836 18.1211 12.1211C18.6836 11.5586 19 10.7959 19 10L19 8C19 7.44727 19.4473 7 20 7C20.5527 7 21 7.44727 21 8L21 10C21 11.3262 20.4736 12.5977 19.5352 13.5352C18.5977 14.4736 17.3262 15 16 15C14.6738 15 13.4023 14.4736 12.4648 13.5352C11.5264 12.5977 11 11.3262 11 10L11 8C11 7.44727 11.4473 7 12 7Z" fill="#A259FF" fill-opacity="1.000000" fill-rule="evenodd"/>
	<path id="Vector (Stroke)" d="M20 7C20.5527 7 21 7.44727 21 8L21 10C21 10.7959 21.3164 11.5586 21.8789 12.1211C22.4414 12.6836 23.2041 13 24 13C24.7959 13 25.5586 12.6836 26.1211 12.1211C26.6836 11.5586 27 10.7959 27 10L27 8C27 7.44727 27.4473 7 28 7C28.5527 7 29 7.44727 29 8L29 10C29 11.3262 28.4736 12.5977 27.5352 13.5352C26.5977 14.4736 25.3262 15 24 15C22.6738 15 21.4023 14.4736 20.4648 13.5352C19.5264 12.5977 19 11.3262 19 10L19 8C19 7.44727 19.4473 7 20 7Z" fill="#A259FF" fill-opacity="1.000000" fill-rule="evenodd"/>
	<path id="NFT Marketplace" d="M51.4805 22.5479L51.876 22.5479L51.876 8.59961L54.7803 8.59961L54.7803 24L49.1035 24L47.2998 10.0518L46.9043 10.0518L46.9043 24L44 24L44 8.59961L49.6758 8.59961L51.4805 22.5479ZM58.0645 8.59961L67.9209 8.59961L67.9209 11.3721L60.9688 11.3721L60.9688 14.8916L67.7891 14.8916L67.7891 17.6641L60.9688 17.6641L60.9688 24L58.0645 24L58.0645 8.59961ZM70.7871 8.59961L81.875 8.59961L81.875 11.3721L77.7832 11.3721L77.7832 24L74.8799 24L74.8799 11.3721L70.7871 11.3721L70.7871 8.59961ZM97.0244 8.59961L102.129 8.59961L103.009 20.1719L103.009 22.416L103.537 22.416L103.537 20.1719L104.417 8.59961L109.521 8.59961L109.521 24L106.881 24L106.881 13.7031L107.145 10.1836L106.617 10.1836L105.473 24L101.117 24L99.9287 10.1836L99.4004 10.1836L99.665 13.7031L99.665 24L97.0244 24L97.0244 8.59961ZM142.321 17.0918L142.849 17.0918L145.753 13.0879L148.789 13.0879L148.789 13.2197L145.269 18.2139L145.269 18.6094L149.141 23.8672L149.141 24L145.973 24L142.849 19.7314L142.321 19.7314L142.321 24L139.549 24L139.549 8.59961L142.321 8.59961L142.321 17.0918ZM165.303 13.0879L168.536 13.0879L168.536 8.59961L171.309 8.59961L171.309 13.0879L175.246 13.0879L175.246 15.7275L171.309 15.7275L171.309 20.6992C171.309 21.1396 171.506 21.3594 171.902 21.3594L174.851 21.3594L174.851 24L170.23 24C169.731 24 169.321 23.8379 168.998 23.5156C168.69 23.1934 168.536 22.7822 168.536 22.2832L168.536 15.7275L165.303 15.7275L165.303 13.0879ZM192.485 21.3594L196.313 21.3594L196.313 11.2393L192.618 11.2393L192.618 8.59961L199.086 8.59961L199.086 21.3594L202.649 21.3594L202.649 24L192.485 24L192.485 21.3594ZM118.789 22.416Q118.365 23.4121 117.615 23.8564Q117.587 23.873 117.558 23.8896C117.029 24.168 116.413 24.3076 115.71 24.3076C115.05 24.3076 114.426 24.1826 113.84 23.9336C113.268 23.6846 112.762 23.3174 112.321 22.834C111.882 22.3496 111.529 21.7627 111.266 21.0732C111.017 20.3848 110.892 19.5996 110.892 18.7197L110.892 18.3672C110.892 17.502 111.017 16.7246 111.266 16.0352Q111.64 15.002 112.277 14.2754Q112.783 13.7002 113.413 13.3457L113.413 13.3457Q113.578 13.2529 113.752 13.1758C114.323 12.9111 114.933 12.7793 115.577 12.7793C116.354 12.7793 116.979 12.9111 117.447 13.1758C117.932 13.4395 118.312 13.8506 118.592 14.4072L118.987 14.4072L118.987 13.0879L121.76 13.0879L121.76 20.6992C121.76 21.1396 121.957 21.3594 122.354 21.3594L122.771 21.3594L122.771 24L120.88 24C120.381 24 119.97 23.8525 119.647 23.5596C119.34 23.2666 119.186 22.8848 119.186 22.416L118.789 22.416ZM124.67 13.0879L129.29 13.0879L129.29 14.6719L129.687 14.6719C129.892 14.0703 130.236 13.6084 130.721 13.2852C131.219 12.9482 131.812 12.7793 132.502 12.7793C133.588 12.7793 134.46 13.124 135.12 13.8135C135.78 14.4883 136.11 15.5225 136.11 16.916L136.11 17.3994L133.25 17.6641L133.25 17.3555C133.25 16.7539 133.097 16.2773 132.788 15.9258C132.48 15.5586 132.019 15.376 131.402 15.376C130.786 15.376 130.302 15.5879 129.95 16.0137C129.599 16.4385 129.422 17.0479 129.422 17.8398L129.422 21.3594L131.931 21.3594L131.931 24L124.406 24L124.406 21.3594L126.65 21.3594L126.65 15.7275L124.67 15.7275L124.67 13.0879ZM154.582 19.4453Q154.599 19.8301 154.728 20.1729Q154.761 20.2617 154.802 20.3477Q154.853 20.4385 154.91 20.5254L154.91 20.5254Q155.103 20.8145 155.374 21.0518C155.623 21.2422 155.901 21.3965 156.21 21.5137Q156.256 21.5283 156.302 21.541Q156.743 21.668 157.222 21.668C157.911 21.668 158.438 21.5498 158.806 21.3154Q159.355 20.9414 159.598 20.4355L161.974 21.7559Q161.775 22.1738 161.424 22.6357C161.188 22.9287 160.881 23.2002 160.5 23.4492C160.133 23.6992 159.679 23.9043 159.136 24.0654C158.607 24.2266 157.984 24.3076 157.266 24.3076Q156.033 24.3076 155.021 23.9111C154.347 23.6475 153.761 23.2666 153.262 22.7676Q152.535 22.0195 152.117 20.9414C151.854 20.2227 151.722 19.4092 151.722 18.5L151.722 18.3672C151.722 17.5312 151.861 16.7686 152.14 16.0801C152.433 15.3906 152.829 14.8037 153.327 14.3193C153.826 13.8359 154.405 13.4619 155.065 13.1973C155.74 12.9189 156.459 12.7793 157.222 12.7793C158.16 12.7793 158.967 12.9482 159.642 13.2852C160.316 13.6084 160.874 14.0264 161.313 14.54C161.754 15.0381 162.076 15.5957 162.281 16.2119C162.487 16.8125 162.59 17.3994 162.59 17.9717L162.59 19.4453L154.582 19.4453ZM181.281 28.3994L178.509 28.3994L178.509 13.0879L181.281 13.0879L181.281 14.6719L181.677 14.6719C181.971 14.0703 182.396 13.6084 182.953 13.2852C183.511 12.9482 184.222 12.7793 185.087 12.7793C185.732 12.7793 186.341 12.9043 186.913 13.1533C187.5 13.4033 188.006 13.7695 188.431 14.2539C188.871 14.7227 189.216 15.3027 189.465 15.9912C189.729 16.6807 189.861 17.4658 189.861 18.3457L189.861 18.7412C189.861 19.6367 189.736 20.4287 189.487 21.1172C189.237 21.8066 188.9 22.3936 188.475 22.8779C188.05 23.3467 187.544 23.7061 186.957 23.9561C186.385 24.1904 185.762 24.3076 185.087 24.3076C184.588 24.3076 184.155 24.2559 183.789 24.1533C183.422 24.0508 183.1 23.9111 182.821 23.7354C182.557 23.5596 182.33 23.3613 182.139 23.1416C181.963 22.9072 181.809 22.665 181.677 22.416L181.281 22.416L181.281 28.3994ZM213.084 22.416C212.791 23.1045 212.381 23.5967 211.853 23.8896C211.324 24.168 210.708 24.3076 210.005 24.3076C209.345 24.3076 208.721 24.1826 208.135 23.9336C207.562 23.6846 207.057 23.3174 206.616 22.834C206.177 22.3496 205.824 21.7627 205.561 21.0732Q205.187 20.04 205.187 18.7197L205.187 18.3672Q205.187 17.0693 205.561 16.0352C205.81 15.3467 206.147 14.7598 206.572 14.2754Q207.078 13.7002 207.708 13.3457Q207.873 13.2529 208.047 13.1758C208.618 12.9111 209.228 12.7793 209.872 12.7793C210.649 12.7793 211.273 12.9111 211.742 13.1758Q211.865 13.2432 211.98 13.3232L211.981 13.3242Q212.54 13.7148 212.887 14.4072L213.282 14.4072L213.282 13.0879L216.055 13.0879L216.055 20.6992Q216.055 21.0645 216.235 21.2275Q216.383 21.3594 216.648 21.3594L217.066 21.3594L217.066 24L215.175 24C214.676 24 214.265 23.8525 213.942 23.5596C213.635 23.2666 213.48 22.8848 213.48 22.416L213.084 22.416ZM230.142 19.9961C229.892 21.2861 229.298 22.3271 228.359 23.1191Q228.299 23.1709 228.237 23.2197L228.237 23.2207Q226.872 24.3076 224.642 24.3076C223.834 24.3076 223.079 24.1826 222.375 23.9336C221.686 23.6846 221.085 23.3252 220.571 22.8555Q220.494 22.7852 220.421 22.7119Q219.757 22.0479 219.361 21.1172Q218.921 20.084 218.921 18.7637L218.921 18.5Q218.921 17.1797 219.361 16.124Q219.75 15.1904 220.396 14.498L220.396 14.498L220.396 14.4971Q220.481 14.4062 220.571 14.3193C221.1 13.8213 221.708 13.4395 222.397 13.1758Q222.503 13.1357 222.609 13.1006Q223.571 12.7793 224.642 12.7793C226.166 12.7793 227.398 13.1758 228.337 13.9678Q228.868 14.4082 229.253 14.9521Q229.906 15.874 230.142 17.0918L227.413 17.7959C227.325 17.1504 227.047 16.5928 226.577 16.124C226.107 15.6543 225.448 15.4199 224.597 15.4199C224.201 15.4199 223.827 15.4932 223.476 15.6396C223.123 15.7861 222.815 15.999 222.551 16.2773C222.287 16.542 222.074 16.8721 221.913 17.2676Q221.693 17.8398 221.693 18.5654L221.693 18.6973Q221.693 19.4238 221.913 19.9961C222.074 20.3623 222.287 20.6699 222.551 20.9199C222.815 21.1689 223.123 21.3594 223.476 21.4912C223.827 21.6094 224.201 21.668 224.597 21.668C225.448 21.668 226.093 21.4551 226.533 21.0293Q226.612 20.9561 226.685 20.877Q227.238 20.2676 227.413 19.3135L230.142 19.9961ZM235.406 19.4453Q235.424 19.8301 235.552 20.1729Q235.585 20.2617 235.626 20.3477C235.772 20.6113 235.963 20.8467 236.198 21.0518C236.447 21.2422 236.726 21.3965 237.034 21.5137C237.356 21.6162 237.693 21.668 238.046 21.668C238.735 21.668 239.264 21.5498 239.63 21.3154C239.996 21.0664 240.261 20.7725 240.422 20.4355L242.798 21.7559Q242.6 22.1738 242.248 22.6357C242.014 22.9287 241.705 23.2002 241.324 23.4492C240.957 23.6992 240.503 23.9043 239.96 24.0654Q239.168 24.3076 238.09 24.3076C237.269 24.3076 236.521 24.1758 235.846 23.9111C235.171 23.6475 234.585 23.2666 234.086 22.7676Q233.359 22.0195 232.941 20.9414C232.678 20.2227 232.546 19.4092 232.546 18.5L232.546 18.3672C232.546 17.5312 232.686 16.7686 232.964 16.0801C233.257 15.3906 233.653 14.8037 234.152 14.3193C234.65 13.8359 235.229 13.4619 235.89 13.1973C236.564 12.9189 237.283 12.7793 238.046 12.7793C238.984 12.7793 239.791 12.9482 240.466 13.2852C241.141 13.6084 241.698 14.0264 242.138 14.54C242.578 15.0381 242.9 15.5957 243.105 16.2119C243.312 16.8125 243.414 17.3994 243.414 17.9717L243.414 19.4453L235.406 19.4453ZM157.199 15.2881C156.496 15.2881 155.924 15.4707 155.483 15.8379C155.044 16.1895 154.758 16.6006 154.626 17.0693L159.773 17.0693C159.686 16.5566 159.407 16.1309 158.938 15.7939C158.483 15.4561 157.903 15.2881 157.199 15.2881ZM238.023 15.2881C237.32 15.2881 236.748 15.4707 236.308 15.8379C235.868 16.1895 235.582 16.6006 235.45 17.0693L240.598 17.0693C240.51 16.5566 240.231 16.1309 239.762 15.7939C239.308 15.4561 238.728 15.2881 238.023 15.2881ZM116.325 21.668Q117.148 21.668 117.747 21.3018Q118.029 21.1289 118.262 20.876C118.745 20.333 118.987 19.5996 118.987 18.6758L118.987 18.4111C118.987 17.4873 118.745 16.7617 118.262 16.2334Q118.01 15.9512 117.699 15.7666Q117.115 15.4199 116.325 15.4199C115.519 15.4199 114.873 15.6914 114.39 16.2334C113.905 16.7617 113.663 17.4873 113.663 18.4111L113.663 18.6758C113.663 19.5996 113.905 20.333 114.39 20.876C114.873 21.4033 115.519 21.668 116.325 21.668ZM184.185 21.668C185.051 21.668 185.747 21.4033 186.275 20.876Q186.438 20.7139 186.566 20.5293Q187.089 19.7861 187.089 18.6758L187.089 18.4111C187.089 17.4873 186.817 16.7617 186.275 16.2334C185.747 15.6914 185.051 15.4199 184.185 15.4199C183.319 15.4199 182.615 15.6982 182.073 16.2559C181.545 16.7979 181.281 17.5166 181.281 18.4111L181.281 18.6758C181.281 19.5703 181.545 20.2959 182.073 20.8535C182.615 21.3965 183.319 21.668 184.185 21.668ZM210.62 21.668C211.427 21.668 212.072 21.4033 212.557 20.876C213.04 20.333 213.282 19.5996 213.282 18.6758L213.282 18.4111C213.282 17.4873 213.04 16.7617 212.557 16.2334C212.072 15.6914 211.427 15.4199 210.62 15.4199C209.813 15.4199 209.168 15.6914 208.685 16.2334C208.2 16.7617 207.958 17.4873 207.958 18.4111L207.958 18.6758C207.958 19.5996 208.2 20.333 208.685 20.876C209.168 21.4033 209.813 21.668 210.62 21.668Z" fill="#FFFFFF" fill-opacity="1.000000" fill-rule="evenodd"/>
</svg>
