<svg width="32.000000" height="32.000000" viewBox="0 0 32 32" fill="none" xmlns="http://www.w3.org/2000/svg" xmlns:xlink="http://www.w3.org/1999/xlink">
	<desc>
			Created with Pixso.
	</desc>
	<defs/>
	<path id="Vector (Stroke)" d="M16 5C12.134 5 9 8.13379 9 12C9 15.8662 12.134 19 16 19C19.866 19 23 15.8662 23 12C23 8.13379 19.866 5 16 5ZM7 12C7 7.0293 11.0295 3 16 3C20.9705 3 25 7.0293 25 12C25 16.9707 20.9705 21 16 21C11.0295 21 7 16.9707 7 12Z" fill="#FFFFFF" fill-opacity="1.000000" fill-rule="evenodd"/>
	<path id="Vector (Stroke)" d="M16 20.999C13.7178 20.999 11.4758 21.5996 9.49951 22.7412C7.52295 23.8818 5.88184 25.5234 4.74097 27.5C4.46484 27.9785 3.85327 28.1426 3.375 27.8662C2.89673 27.5898 2.73267 26.9785 3.00879 26.5C4.3252 24.2197 6.21899 22.3262 8.49927 21.0088C10.7798 19.6924 13.3667 18.999 16 18.999C18.6333 18.999 21.2202 19.6924 23.5005 21.0088C25.781 22.3262 27.6746 24.2197 28.991 26.5C29.2671 26.9785 29.1033 27.5898 28.6248 27.8662C28.1465 28.1426 27.5349 27.9785 27.2588 27.5C26.1179 25.5234 24.4768 23.8818 22.5005 22.7412C20.5242 21.5996 18.282 20.999 16 20.999Z" fill="#FFFFFF" fill-opacity="1.000000" fill-rule="evenodd"/>
</svg>
