<svg width="32.000000" height="32.000000" viewBox="0 0 32 32" fill="none" xmlns="http://www.w3.org/2000/svg" xmlns:xlink="http://www.w3.org/1999/xlink">
	<desc>
			Created with Pixso.
	</desc>
	<defs/>
	<path id="Vector (Stroke)" d="M9.8728 19.9189C10.0488 20.4424 9.76733 21.0098 9.24365 21.1855C7.54858 21.7559 6.64771 23.1787 6.16602 24.625C5.97461 25.2002 5.85913 25.7529 5.78955 26.2109C6.24683 26.1406 6.80005 26.0254 7.37476 25.834C8.82178 25.3525 10.2446 24.4512 10.8147 22.7559C10.9907 22.2324 11.5579 21.9512 12.0813 22.127C12.6047 22.3037 12.8865 22.8701 12.7104 23.3936C11.8555 25.9365 9.74072 27.1543 8.00659 27.7314C7.13037 28.0234 6.3103 28.167 5.71167 28.2393C5.41089 28.2754 5.16235 28.2939 4.9856 28.3027C4.89722 28.3076 4.82642 28.3096 4.77612 28.3115C4.75098 28.3115 4.73071 28.3125 4.71582 28.3125L4.69751 28.3125L4.69141 28.3125L4.68921 28.3125L4.68823 28.3125C4.68799 28.3125 4.6875 28.3125 4.6875 27.3125C3.6875 27.3125 3.6875 27.3125 3.6875 27.3115L3.6875 27.3105L3.6875 27.3086L3.6875 27.3027L3.68774 27.2842C3.68799 27.2695 3.68823 27.249 3.68872 27.2236C3.69019 27.1738 3.69263 27.1025 3.69727 27.0146C3.70654 26.8379 3.72485 26.5889 3.76074 26.2881C3.83252 25.6895 3.97656 24.8691 4.26831 23.9932C4.84595 22.2588 6.06372 20.1445 8.6062 19.29C9.12964 19.1133 9.69678 19.3955 9.8728 19.9189ZM4.6875 27.3125L3.6875 27.3125C3.6875 27.8652 4.13525 28.3125 4.6875 28.3125L4.6875 27.3125Z" fill="#A259FF" fill-opacity="1.000000" fill-rule="evenodd"/>
	<path id="Vector (Stroke)" d="M26.4739 5.52734C25.3132 5.35938 22.4561 5.29688 19.532 8.2207L11.7517 16.001L16 20.249L23.7803 12.4688C26.7043 9.54492 26.6414 6.6875 26.4739 5.52734ZM26.7639 3.54785C25.1675 3.31738 21.6091 3.31445 18.1177 6.80664L9.63037 15.2939C9.44287 15.4814 9.3374 15.7354 9.3374 16.001C9.3374 16.2656 9.44287 16.5205 9.63037 16.708L15.2927 22.3701C15.6833 22.7607 16.3164 22.7607 16.707 22.3701L25.1946 13.8828C28.6858 10.3916 28.6838 6.83301 28.4526 5.2373C28.3943 4.80957 28.1975 4.41309 27.8926 4.1084C27.5874 3.80371 27.1912 3.60645 26.7639 3.54785Z" fill="#A259FF" fill-opacity="1.000000" fill-rule="evenodd"/>
	<path id="Vector (Stroke)" d="M23.075 13.5879C23.6272 13.5879 24.075 14.0352 24.075 14.5879L24.075 22.6631L24.075 22.6768C24.0674 23.2021 23.8535 23.7031 23.4797 24.0723L19.4441 28.1201C19.188 28.376 18.8672 28.5576 18.5159 28.6455C18.1646 28.7334 17.7959 28.7246 17.4495 28.6191C17.103 28.5137 16.7917 28.3164 16.5486 28.0479C16.3057 27.7803 16.1401 27.4512 16.0693 27.0967L15.0195 21.8594C14.9109 21.3184 15.262 20.791 15.8035 20.6826C16.345 20.5742 16.8718 20.9248 16.9805 21.4668L18.0308 26.7051L22.075 22.6484L22.075 14.5879C22.075 14.0352 22.5227 13.5879 23.075 13.5879Z" fill="#A259FF" fill-opacity="1.000000" fill-rule="evenodd"/>
	<path id="Vector (Stroke)" d="M9.32324 7.9248L9.3374 7.9248L17.4124 7.9248C17.9646 7.9248 18.4124 8.37207 18.4124 8.9248C18.4124 9.47754 17.9646 9.9248 17.4124 9.9248L9.35156 9.9248L9.34351 9.93262L9.34351 9.93262L5.29492 13.9688L5.29639 13.9697L10.5339 15.0195C11.0754 15.1279 11.4265 15.6553 11.3179 16.1963C11.2092 16.7383 10.6824 17.0889 10.1409 16.9805L4.90479 15.9307C4.90454 15.9307 4.9043 15.9307 4.90405 15.9307C4.54932 15.8594 4.22021 15.6943 3.95215 15.4512C3.68384 15.208 3.48657 14.8965 3.38135 14.5498C3.27612 14.2041 3.26685 13.835 3.35474 13.4844C3.44238 13.1328 3.62402 12.8115 3.87988 12.5557L3.88135 12.5537L3.88135 12.5537L7.92798 8.52051C8.29688 8.14648 8.79785 7.93262 9.32324 7.9248Z" fill="#A259FF" fill-opacity="1.000000" fill-rule="evenodd"/>
</svg>
