<svg width="32.000000" height="32.000000" viewBox="0 0 32 32" fill="none" xmlns="http://www.w3.org/2000/svg" xmlns:xlink="http://www.w3.org/1999/xlink">
	<desc>
			Created with Pixso.
	</desc>
	<defs/>
	<path id="Vector (Stroke)" d="M4.54297 10.793C6.92676 8.40918 10.6675 6 16 6C21.3325 6 25.0732 8.40918 27.457 10.793C28.6462 11.9814 29.5034 13.1689 30.0649 14.0605C30.3462 14.5078 30.5547 14.8828 30.6943 15.1494C30.7644 15.2832 30.8174 15.3896 30.8535 15.4648C30.8718 15.5029 30.886 15.5332 30.896 15.5547L30.908 15.5811L30.9116 15.5889L30.9128 15.5918L30.9133 15.5928C30.9136 15.5938 30.9138 15.5938 30 16C30.9138 16.4062 30.9136 16.4062 30.9133 16.4072L30.9128 16.4082L30.9116 16.4111L30.908 16.4189L30.896 16.4453C30.886 16.4668 30.8718 16.4971 30.8535 16.5352C30.8174 16.6104 30.7644 16.7168 30.6943 16.8506C30.5547 17.1172 30.3462 17.4922 30.0649 17.9395C29.5034 18.8311 28.6462 20.0186 27.457 21.207C25.0732 23.5908 21.3325 26 16 26C10.6675 26 6.92676 23.5908 4.54297 21.207C3.35376 20.0186 2.49658 18.8311 1.93506 17.9395C1.65381 17.4922 1.44531 17.1172 1.30566 16.8506C1.2356 16.7168 1.18262 16.6104 1.14624 16.5352C1.12817 16.4971 1.11401 16.4668 1.104 16.4453L1.09204 16.4189L1.08838 16.4111L1.08716 16.4082L1.08667 16.4072C1.08643 16.4062 1.08618 16.4062 2 16C1.08618 15.5938 1.08643 15.5938 1.08667 15.5928L1.08716 15.5918L1.08838 15.5889L1.09204 15.5811L1.104 15.5547C1.11401 15.5332 1.12817 15.5029 1.14624 15.4648C1.18262 15.3896 1.2356 15.2832 1.30566 15.1494C1.44531 14.8828 1.65381 14.5078 1.93506 14.0605C2.49658 13.1689 3.35376 11.9814 4.54297 10.793ZM2 16L1.08618 15.5938C0.971191 15.8525 0.971191 16.1475 1.08618 16.4062L2 16ZM3.11816 16C3.23584 16.2207 3.40479 16.5195 3.62744 16.873C4.12842 17.6689 4.89624 18.7314 5.95703 19.793C8.07324 21.9092 11.3325 24 16 24C20.6675 24 23.9268 21.9092 26.043 19.793C27.1038 18.7314 27.8716 17.6689 28.3726 16.873C28.5952 16.5195 28.7642 16.2207 28.8818 16C28.7642 15.7793 28.5952 15.4805 28.3726 15.127C27.8716 14.3311 27.1038 13.2686 26.043 12.207C23.9268 10.0908 20.6675 8 16 8C11.3325 8 8.07324 10.0908 5.95703 12.207C4.89624 13.2686 4.12842 14.3311 3.62744 15.127C3.40479 15.4805 3.23584 15.7793 3.11816 16ZM30 16L30.9138 16.4062C31.0288 16.1475 31.0288 15.8525 30.9138 15.5938L30 16Z" fill="#A259FF" fill-opacity="1.000000" fill-rule="evenodd"/>
	<path id="Vector (Stroke)" d="M16 12C13.7908 12 12 13.791 12 16C12 18.209 13.7908 20 16 20C18.2092 20 20 18.209 20 16C20 13.791 18.2092 12 16 12ZM10 16C10 12.6865 12.6863 10 16 10C19.3137 10 22 12.6865 22 16C22 19.3135 19.3137 22 16 22C12.6863 22 10 19.3135 10 16Z" fill="#A259FF" fill-opacity="1.000000" fill-rule="evenodd"/>
</svg>
