<svg width="32.000000" height="32.000000" viewBox="0 0 32 32" fill="none" xmlns="http://www.w3.org/2000/svg" xmlns:xlink="http://www.w3.org/1999/xlink">
	<desc>
			Created with Pixso.
	</desc>
	<defs/>
	<path id="Vector" d="M12 19.5C12.8281 19.5 13.5 18.8281 13.5 18C13.5 17.1719 12.8281 16.5 12 16.5C11.1719 16.5 10.5 17.1719 10.5 18C10.5 18.8281 11.1719 19.5 12 19.5Z" fill="#858584" fill-opacity="1.000000" fill-rule="nonzero"/>
	<path id="Vector" d="M20 19.5C20.8281 19.5 21.5 18.8281 21.5 18C21.5 17.1719 20.8281 16.5 20 16.5C19.1719 16.5 18.5 17.1719 18.5 18C18.5 18.8281 19.1719 19.5 20 19.5Z" fill="#858584" fill-opacity="1.000000" fill-rule="nonzero"/>
	<path id="Vector (Stroke)" d="M15.9932 10C13.8252 9.98438 11.668 10.3066 9.59961 10.9551C9.07227 11.1191 8.51074 10.8262 8.3457 10.2988C8.18066 9.77344 8.47363 9.21094 9.00098 9.04688C11.2656 8.33594 13.627 7.98438 16 8C18.373 7.98438 20.7344 8.33594 22.999 9.04688C23.5264 9.21094 23.8193 9.77344 23.6543 10.2988C23.4893 10.8262 22.9277 11.1191 22.4014 10.9551C20.332 10.3066 18.1748 9.98438 16.0078 10L15.9932 10Z" fill="#858584" fill-opacity="1.000000" fill-rule="evenodd"/>
	<path id="Vector (Stroke)" d="M8.3457 21.7012C8.51074 21.1738 9.07227 20.8809 9.59961 21.0469C11.668 21.6953 13.8252 22.0156 15.9932 22L16.0078 22C18.1748 22.0156 20.332 21.6953 22.4014 21.0469C22.9277 20.8809 23.4893 21.1738 23.6543 21.7012C23.8193 22.2285 23.5264 22.7891 22.999 22.9551C20.7344 23.6641 18.373 24.0176 16 24C13.627 24.0176 11.2656 23.6641 9.00098 22.9551C8.47363 22.7891 8.18066 22.2285 8.3457 21.7012Z" fill="#858584" fill-opacity="1.000000" fill-rule="evenodd"/>
	<path id="Vector (Stroke)" d="M20.2207 4.81055C20.6514 4.56836 21.1553 4.49219 21.6387 4.59766C22.9561 4.88281 24.2461 5.2832 25.4932 5.79492C25.7744 5.90234 26.0264 6.07422 26.2305 6.29492C26.4365 6.51953 26.5879 6.78711 26.6729 7.08008L30.9082 21.2246C31.0186 21.5938 31.0215 21.9863 30.916 22.3555C30.8096 22.7246 30.6006 23.0566 30.3125 23.3125L30.3066 23.3164C28.2393 25.1152 25.4385 26.4766 22.2559 27.2559C21.8145 27.3691 21.3467 27.3262 20.9336 27.1328C20.5215 26.9414 20.1885 26.6113 19.9912 26.2031L18.4824 23.2129C18.2344 22.7188 18.4316 22.1172 18.9248 21.8691C19.418 21.6211 20.0195 21.8184 20.2686 22.3125L21.7812 25.3125L21.7822 25.3145C24.7197 24.5938 27.2139 23.3555 28.9941 21.8066L29.6504 22.5625L28.9893 21.8125C28.9902 21.8105 28.9922 21.8086 28.9922 21.8066C28.9932 21.8027 28.9932 21.8008 28.9922 21.7988L24.7568 7.6543C24.7529 7.65234 24.749 7.65039 24.7461 7.64844C23.6025 7.17969 22.4209 6.8125 21.2139 6.55078L21.2119 6.55078C21.209 6.55078 21.2051 6.55078 21.2031 6.55273C21.2002 6.55469 21.1982 6.55664 21.1973 6.55859L20.2129 9.53711C20.0391 10.0625 19.4736 10.3477 18.9492 10.1738C18.4248 10 18.1406 9.43555 18.3135 8.91016L19.3037 5.91406C19.4629 5.44531 19.79 5.05273 20.2207 4.81055Z" fill="#858584" fill-opacity="1.000000" fill-rule="evenodd"/>
	<path id="Vector (Stroke)" d="M10.7979 6.55273C10.7959 6.55078 10.792 6.55078 10.7891 6.55078L10.7871 6.55078C9.58008 6.8125 8.39746 7.17969 7.25488 7.64844C7.25195 7.65039 7.24805 7.65234 7.24414 7.6543L3.00879 21.7988C3.00781 21.8008 3.00781 21.8027 3.00781 21.8066C3.00879 21.8086 3.00977 21.8105 3.01172 21.8105C4.79102 23.3574 7.2832 24.5938 10.2188 25.3145L10.2197 25.3125L11.7324 22.3125C11.9814 21.8184 12.582 21.6211 13.0752 21.8691C13.5684 22.1172 13.7666 22.7188 13.5186 23.2129L12.0098 26.2031C11.8125 26.6113 11.4795 26.9414 11.0674 27.1328C10.6543 27.3262 10.1865 27.3691 9.74512 27.2559C6.5625 26.4766 3.76172 25.1152 1.69434 23.3164L1.68848 23.3125C1.40039 23.0566 1.19141 22.7246 1.08496 22.3555C0.979492 21.9863 0.982422 21.5938 1.09277 21.2246L5.32812 7.08008C5.41309 6.78711 5.56445 6.51953 5.77051 6.29492C5.97461 6.07422 6.22656 5.90234 6.50781 5.79492C7.75586 5.2832 9.0459 4.88281 10.3633 4.59766C10.8457 4.49219 11.3506 4.56836 11.7803 4.81055C12.2109 5.05273 12.5371 5.44531 12.6973 5.91406L12.7002 5.92383L13.6875 8.91016C13.8604 9.43555 13.5762 10 13.0518 10.1738C12.5273 10.3477 11.9619 10.0625 11.7881 9.53711L10.8037 6.55859C10.8027 6.55664 10.8008 6.55469 10.7979 6.55273Z" fill="#858584" fill-opacity="1.000000" fill-rule="evenodd"/>
	<path id="Vector" d="M12 19.5C12.8281 19.5 13.5 18.8281 13.5 18C13.5 17.1719 12.8281 16.5 12 16.5C11.1719 16.5 10.5 17.1719 10.5 18C10.5 18.8281 11.1719 19.5 12 19.5Z" fill="#858584" fill-opacity="1.000000" fill-rule="nonzero"/>
	<path id="Vector" d="M20 19.5C20.8281 19.5 21.5 18.8281 21.5 18C21.5 17.1719 20.8281 16.5 20 16.5C19.1719 16.5 18.5 17.1719 18.5 18C18.5 18.8281 19.1719 19.5 20 19.5Z" fill="#858584" fill-opacity="1.000000" fill-rule="nonzero"/>
	<path id="Vector (Stroke)" d="M15.9932 10C13.8252 9.98438 11.668 10.3066 9.59961 10.9551C9.07227 11.1191 8.51074 10.8262 8.3457 10.2988C8.18066 9.77344 8.47363 9.21094 9.00098 9.04688C11.2656 8.33594 13.627 7.98438 16 8C18.373 7.98438 20.7344 8.33594 22.999 9.04688C23.5264 9.21094 23.8193 9.77344 23.6543 10.2988C23.4893 10.8262 22.9277 11.1191 22.4014 10.9551C20.332 10.3066 18.1748 9.98438 16.0078 10L15.9932 10Z" fill="#858584" fill-opacity="1.000000" fill-rule="evenodd"/>
	<path id="Vector (Stroke)" d="M8.3457 21.7012C8.51074 21.1738 9.07227 20.8809 9.59961 21.0469C11.668 21.6953 13.8252 22.0156 15.9932 22L16.0078 22C18.1748 22.0156 20.332 21.6953 22.4014 21.0469C22.9277 20.8809 23.4893 21.1738 23.6543 21.7012C23.8193 22.2285 23.5264 22.7891 22.999 22.9551C20.7344 23.6641 18.373 24.0176 16 24C13.627 24.0176 11.2656 23.6641 9.00098 22.9551C8.47363 22.7891 8.18066 22.2285 8.3457 21.7012Z" fill="#858584" fill-opacity="1.000000" fill-rule="evenodd"/>
	<path id="Vector (Stroke)" d="M20.2207 4.81055C20.6514 4.56836 21.1553 4.49219 21.6387 4.59766C22.9561 4.88281 24.2461 5.2832 25.4932 5.79492C25.7744 5.90234 26.0264 6.07422 26.2305 6.29492C26.4365 6.51953 26.5879 6.78711 26.6729 7.08008L30.9082 21.2246C31.0186 21.5938 31.0215 21.9863 30.916 22.3555C30.8096 22.7246 30.6006 23.0566 30.3125 23.3125L30.3066 23.3164C28.2393 25.1152 25.4385 26.4766 22.2559 27.2559C21.8145 27.3691 21.3467 27.3262 20.9336 27.1328C20.5215 26.9414 20.1885 26.6113 19.9912 26.2031L18.4824 23.2129C18.2344 22.7188 18.4316 22.1172 18.9248 21.8691C19.418 21.6211 20.0195 21.8184 20.2686 22.3125L21.7812 25.3125L21.7822 25.3145C24.7197 24.5938 27.2139 23.3555 28.9941 21.8066L29.6504 22.5625L28.9893 21.8125C28.9902 21.8105 28.9922 21.8086 28.9922 21.8066C28.9932 21.8027 28.9932 21.8008 28.9922 21.7988L24.7568 7.6543C24.7529 7.65234 24.749 7.65039 24.7461 7.64844C23.6025 7.17969 22.4209 6.8125 21.2139 6.55078L21.2119 6.55078C21.209 6.55078 21.2051 6.55078 21.2031 6.55273C21.2002 6.55469 21.1982 6.55664 21.1973 6.55859L20.2129 9.53711C20.0391 10.0625 19.4736 10.3477 18.9492 10.1738C18.4248 10 18.1406 9.43555 18.3135 8.91016L19.3037 5.91406C19.4629 5.44531 19.79 5.05273 20.2207 4.81055Z" fill="#858584" fill-opacity="1.000000" fill-rule="evenodd"/>
	<path id="Vector (Stroke)" d="M10.7979 6.55273C10.7959 6.55078 10.792 6.55078 10.7891 6.55078L10.7871 6.55078C9.58008 6.8125 8.39746 7.17969 7.25488 7.64844C7.25195 7.65039 7.24805 7.65234 7.24414 7.6543L3.00879 21.7988C3.00781 21.8008 3.00781 21.8027 3.00781 21.8066C3.00879 21.8086 3.00977 21.8105 3.01172 21.8105C4.79102 23.3574 7.2832 24.5938 10.2188 25.3145L10.2197 25.3125L11.7324 22.3125C11.9814 21.8184 12.582 21.6211 13.0752 21.8691C13.5684 22.1172 13.7666 22.7188 13.5186 23.2129L12.0098 26.2031C11.8125 26.6113 11.4795 26.9414 11.0674 27.1328C10.6543 27.3262 10.1865 27.3691 9.74512 27.2559C6.5625 26.4766 3.76172 25.1152 1.69434 23.3164L1.68848 23.3125C1.40039 23.0566 1.19141 22.7246 1.08496 22.3555C0.979492 21.9863 0.982422 21.5938 1.09277 21.2246L5.32812 7.08008C5.41309 6.78711 5.56445 6.51953 5.77051 6.29492C5.97461 6.07422 6.22656 5.90234 6.50781 5.79492C7.75586 5.2832 9.0459 4.88281 10.3633 4.59766C10.8457 4.49219 11.3506 4.56836 11.7803 4.81055C12.2109 5.05273 12.5371 5.44531 12.6973 5.91406L12.7002 5.92383L13.6875 8.91016C13.8604 9.43555 13.5762 10 13.0518 10.1738C12.5273 10.3477 11.9619 10.0625 11.7881 9.53711L10.8037 6.55859C10.8027 6.55664 10.8008 6.55469 10.7979 6.55273Z" fill="#858584" fill-opacity="1.000000" fill-rule="evenodd"/>
</svg>
