<svg width="32.000000" height="32.000000" viewBox="0 0 32 32" fill="none" xmlns="http://www.w3.org/2000/svg" xmlns:xlink="http://www.w3.org/1999/xlink">
	<desc>
			Created with Pixso.
	</desc>
	<defs/>
	<path id="Vector (Stroke)" d="M16 12C13.791 12 12 13.791 12 16C12 18.209 13.791 20 16 20C18.209 20 20 18.209 20 16C20 13.791 18.209 12 16 12ZM10 16C10 12.6855 12.6865 10 16 10C19.3135 10 22 12.6855 22 16C22 19.3145 19.3135 22 16 22C12.6865 22 10 19.3145 10 16Z" fill="#858584" fill-opacity="1.000000" fill-rule="evenodd"/>
	<path id="Vector (Stroke)" d="M10.5 5.5C7.73828 5.5 5.5 7.73828 5.5 10.5L5.5 21.5C5.5 24.2617 7.73828 26.5 10.5 26.5L21.5 26.5C24.2617 26.5 26.5 24.2617 26.5 21.5L26.5 10.5C26.5 7.73828 24.2617 5.5 21.5 5.5L10.5 5.5ZM3.5 10.5C3.5 6.63477 6.63379 3.5 10.5 3.5L21.5 3.5C25.3662 3.5 28.5 6.63477 28.5 10.5L28.5 21.5C28.5 25.3652 25.3662 28.5 21.5 28.5L10.5 28.5C6.63379 28.5 3.5 25.3652 3.5 21.5L3.5 10.5Z" fill="#858584" fill-opacity="1.000000" fill-rule="evenodd"/>
	<path id="Vector" d="M22.5 11C23.3281 11 24 10.3281 24 9.5C24 8.67188 23.3281 8 22.5 8C21.6719 8 21 8.67188 21 9.5C21 10.3281 21.6719 11 22.5 11Z" fill="#858584" fill-opacity="1.000000" fill-rule="nonzero"/>
</svg>
