<svg width="32.000000" height="32.000000" viewBox="0 0 32 32" fill="none" xmlns="http://www.w3.org/2000/svg" xmlns:xlink="http://www.w3.org/1999/xlink">
	<desc>
			Created with Pixso.
	</desc>
	<defs/>
	<path id="Vector" d="M21.0625 6C22.0254 6.01172 22.9648 6.30078 23.7676 6.83203C24.5703 7.36523 25.2021 8.11719 25.5869 9L30 9L25.9619 13.0371C25.7012 17.0938 23.9062 20.8984 20.9414 23.6777C17.9766 26.457 14.0635 28.002 10 28C6 28 5 26.5 5 26.5C5 26.5 9 25 11 22C11 22 3 18 5 7C5 7 10 12 16 13L16 11C16 8.25 18.3125 5.96289 21.0625 6Z" stroke="#858584" stroke-opacity="1.000000" stroke-width="2.000000" stroke-linejoin="round"/>
</svg>
