<svg width="32.000000" height="32.000000" viewBox="0 0 32 32" fill="none" xmlns="http://www.w3.org/2000/svg" xmlns:xlink="http://www.w3.org/1999/xlink">
	<desc>
			Created with Pixso.
	</desc>
	<defs/>
	<path id="Vector (Stroke)" d="M13.5283 11.1191C13.8535 10.9434 14.248 10.9629 14.5547 11.168L20.5547 15.168C20.833 15.3535 21 15.666 21 16C21 16.334 20.833 16.6465 20.5547 16.832L14.5547 20.832C14.248 21.0371 13.8535 21.0566 13.5283 20.8809C13.2031 20.707 13 20.3691 13 20L13 12C13 11.6309 13.2031 11.293 13.5283 11.1191ZM15 13.8691L15 18.1309L18.1973 16L15 13.8691Z" fill="#858584" fill-opacity="1.000000" fill-rule="evenodd"/>
	<path id="Vector (Stroke)" d="M15.998 5.05078L15.9814 5.05078L15.9189 5.05078C15.8643 5.05078 15.7852 5.05078 15.6836 5.05273C15.4795 5.05469 15.1855 5.05859 14.8203 5.07031C14.0908 5.0918 13.0742 5.13867 11.9238 5.23633C9.64746 5.42773 6.74902 5.82617 4.51855 6.67969L4.50293 6.68555C4.06543 6.86133 3.67383 7.13672 3.3623 7.49023C3.0498 7.8457 2.82617 8.26758 2.70703 8.72461L2.70605 8.72852C2.39453 9.94727 2 12.207 2 16C2 19.7949 2.39453 22.0547 2.70605 23.2734L2.70703 23.2773C2.82617 23.7344 3.0498 24.1562 3.3623 24.5117C3.67383 24.8652 4.06543 25.1406 4.50293 25.3164L4.51855 25.3223C6.74902 26.1758 9.64746 26.5742 11.9238 26.7656C13.0742 26.8633 14.0908 26.9102 14.8203 26.9316C15.1855 26.9414 15.4795 26.9473 15.6836 26.9492C15.7852 26.9512 15.8643 26.9512 15.9189 26.9512L15.9814 26.9512L15.998 26.9512L16.002 26.9512L16.0186 26.9512L16.0811 26.9512C16.1357 26.9512 16.2148 26.9512 16.3164 26.9492C16.5205 26.9473 16.8145 26.9414 17.1797 26.9316C17.9092 26.9102 18.9258 26.8633 20.0762 26.7656C22.3525 26.5742 25.251 26.1758 27.4814 25.3223L27.4971 25.3164C27.9346 25.1406 28.3262 24.8652 28.6377 24.5117C28.9502 24.1562 29.1738 23.7344 29.293 23.2773L29.2939 23.2734C29.6055 22.0547 30 19.7949 30 16C30 12.207 29.6055 9.94727 29.2939 8.72852L29.293 8.72461C29.1738 8.26758 28.9502 7.8457 28.6377 7.49023C28.3262 7.13672 27.9346 6.86133 27.4971 6.68555L27.4814 6.67969C25.251 5.82617 22.3525 5.42773 20.0762 5.23633C18.9258 5.13867 17.9092 5.0918 17.1797 5.07031C16.8145 5.05859 16.5205 5.05469 16.3164 5.05273C16.2148 5.05078 16.1357 5.05078 16.0811 5.05078L16.0186 5.05078L16.002 5.05078L15.998 5.05078ZM15.9951 24.9512L16.0059 24.9512L16.0088 24.9512L16.0215 24.9512L16.0771 24.9512C16.126 24.9512 16.1992 24.9512 16.2959 24.9492C16.4873 24.9473 16.7686 24.9434 17.1191 24.9316C17.8213 24.9102 18.8008 24.8672 19.9082 24.7734C22.1445 24.584 24.8037 24.2031 26.7598 23.457C26.9043 23.3984 27.0332 23.3066 27.1367 23.1895C27.2412 23.0703 27.3164 22.9297 27.3564 22.7754C27.6201 21.7441 28 19.6543 28 16C28 12.3477 27.6201 10.2578 27.3564 9.22656C27.3164 9.07227 27.2412 8.93164 27.1367 8.8125C27.0332 8.69531 26.9043 8.60352 26.7598 8.54492C24.8037 7.79883 22.1445 7.41797 19.9082 7.22852C18.8008 7.13477 17.8213 7.08984 17.1191 7.07031C16.7686 7.05859 16.4873 7.05469 16.2959 7.05273C16.1992 7.05078 16.126 7.05078 16.0771 7.05078L16.0215 7.05078L16.0088 7.05078L16.0059 7.05078L15.9941 7.05078L15.9912 7.05078L15.9785 7.05078L15.9229 7.05078C15.874 7.05078 15.8008 7.05078 15.7041 7.05273C15.5127 7.05469 15.2314 7.05859 14.8809 7.07031C14.1787 7.08984 13.1992 7.13477 12.0918 7.22852C9.85547 7.41797 7.19629 7.79883 5.24023 8.54492C5.0957 8.60352 4.9668 8.69531 4.86328 8.8125C4.75879 8.93164 4.68359 9.07227 4.64355 9.22656C4.37988 10.2578 4 12.3477 4 16C4 19.6543 4.37988 21.7441 4.64355 22.7754C4.68359 22.9297 4.75879 23.0703 4.86328 23.1895C4.9668 23.3066 5.0957 23.3984 5.24023 23.457C7.19629 24.2031 9.85547 24.584 12.0918 24.7734C13.1992 24.8672 14.1787 24.9102 14.8809 24.9316C15.2314 24.9434 15.5127 24.9473 15.7041 24.9492C15.8008 24.9512 15.874 24.9512 15.9229 24.9512L15.9785 24.9512L15.9912 24.9512L15.9951 24.9512Z" fill="#858584" fill-opacity="1.000000" fill-rule="evenodd"/>
</svg>
